# xmcd
#
# Track frame offsets: 
#        150
#        16900
#        37788
#        63771
#        87420
#        109290
#        126092
#        149906
#        164859
#        185907
#        213888
#        229466
#        241634
#        261782
#        280793
#        301951
#        324650
#
# Disc length: 4514 seconds
#
# Revision: 3
# Processed by: cddbd v1.5.2PL0 Copyright (c) Steve Scherf et al.
# Submitted via: ExactAudioCopy v1.3
#
DISCID=f911a011
DTITLE=Andrea Motis - Joan Chamorro presenta Andrea Motis
DYEAR=2010
DGENRE=Jazz
TTITLE0=Louisiana Fairy Tale
TTITLE1=Basin Street Blues
TTITLE2=Over the Rainbow
TTITLE3=It's a Wonderful World
TTITLE4=Enjoy Yourself
TTITLE5=Do You Know What it Means to Miss N.O.
TTITLE6=Manha de Carnaval
TTITLE7=Dream a Little Dream of Me
TTITLE8=I'm Confessin' that I Love You
TTITLE9=No More Blues (Chega de Saudade)
TTITLE10=The Nearness of You
TTITLE11=L.O.V.E.
TTITLE12=Smile
TTITLE13=On the Sunny Side of the Street
TTITLE14=My One and Only Love
TTITLE15=Sweet Lorraine
TTITLE16=Bli-Blip
EXTD=YEAR: 2010
EXTT0=
EXTT1=
EXTT2=
EXTT3=
EXTT4=
EXTT5=
EXTT6=
EXTT7=
EXTT8=
EXTT9=
EXTT10=
EXTT11=
EXTT12=
EXTT13=
EXTT14=
EXTT15=
EXTT16=
PLAYORDER=
